<svg width="271" height="17" viewBox="0 0 271 17" fill="none" xmlns="http://www.w3.org/2000/svg">
<path d="M0.983914 10.768C0.767914 12.808 3.19191 16.336 8.90391 16.336C13.5599 16.336 15.6719 14.56 15.6719 11.632C15.6719 8.656 12.9599 7.792 9.45591 7.264C5.95191 6.664 4.39191 6.4 4.39191 4.84C4.39191 3.424 5.85591 2.872 7.96791 2.872C10.1999 2.872 11.8079 3.664 11.9039 5.536H15.0479C15.0719 2.224 12.5759 0.160004 8.11191 0.160004C3.57591 0.160004 1.15191 2.008 1.15191 4.768C1.15191 7.672 4.03191 8.68 7.65591 9.28C10.8959 9.712 12.5279 10.072 12.5279 11.536C12.5279 12.832 11.3519 13.672 8.99991 13.648C6.40791 13.624 4.41591 12.472 4.22391 10.768H0.983914Z" fill="white"/>
<path d="M45.512 0.496003H29.12V3.184H35.72V16H38.912V3.184H45.512V0.496003Z" fill="white"/>
<path d="M74.0643 0.496003V9.16C74.0643 12.784 71.6883 13.552 68.5683 13.552C65.3523 13.552 63.0243 12.784 63.0243 9.16V0.496003H59.8083V9.496C59.8083 14.656 63.6963 16.336 68.5683 16.336C73.2723 16.336 77.2563 14.656 77.2563 9.496V0.496003H74.0643Z" fill="white"/>
<path d="M102.549 0.496003H92.9009V16H96.1169V10.984H102.549C106.029 10.984 108.789 9.568 108.789 5.824C108.789 2.104 106.029 0.496003 102.549 0.496003ZM102.837 8.392H96.1169V3.256H102.837C104.445 3.256 105.597 4.144 105.597 5.824C105.597 7.456 104.445 8.392 102.837 8.392Z" fill="white"/>
<path d="M124.225 0.496003V16H127.417V0.496003H124.225Z" fill="white"/>
<path d="M158.31 0.496003V11.8L146.766 0.496003H143.55V16H146.766V4.744L158.31 16H161.502V0.496003H158.31Z" fill="white"/>
<path d="M195.452 6.592V12.88H201.74V6.592H195.452Z" fill="white"/>
<path d="M236.163 0.496003V16H239.355V0.496003H236.163Z" fill="white"/>
<path d="M270.512 0.496003H254.12V3.184H260.72V16H263.912V3.184H270.512V0.496003Z" fill="white"/>
</svg>
