<svg width="13" height="20" viewBox="0 0 13 20" fill="none" xmlns="http://www.w3.org/2000/svg">
<path d="M6.11111 20C2.75 20 0 17.25 0 13.8889V6.11111C0 2.75 2.75 0 6.11111 0C9.47222 0 12.2222 2.75 12.2222 6.11111V13.8889C12.2222 17.25 9.47222 20 6.11111 20ZM6.11111 1.11111C3.36111 1.11111 1.11111 3.36111 1.11111 6.11111V13.8889C1.11111 16.6389 3.36111 18.8889 6.11111 18.8889C8.86111 18.8889 11.1111 16.6389 11.1111 13.8889V6.11111C11.1111 3.36111 8.86111 1.11111 6.11111 1.11111Z" fill="#1E57D6"/>
<path d="M6.11104 6.94442C5.80548 6.94442 5.55548 6.69442 5.55548 6.38886V4.16664C5.55548 3.86108 5.80548 3.61108 6.11104 3.61108C6.41659 3.61108 6.66659 3.86108 6.66659 4.16664V6.38886C6.66659 6.69442 6.41659 6.94442 6.11104 6.94442Z" fill="#1E57D6"/>
</svg>
