<svg width="114" height="78" viewBox="0 0 114 78" fill="none" xmlns="http://www.w3.org/2000/svg">
<circle cx="111" cy="75" r="3" fill="#123480"/>
<circle cx="111" cy="57" r="3" fill="#123480"/>
<circle cx="111" cy="39" r="3" fill="#123480"/>
<circle cx="111" cy="21" r="3" fill="#123480"/>
<circle cx="111" cy="3" r="3" fill="#123480"/>
<circle cx="93" cy="75" r="3" fill="#123480"/>
<circle cx="93" cy="57" r="3" fill="#123480"/>
<circle cx="93" cy="39" r="3" fill="#123480"/>
<circle cx="93" cy="21" r="3" fill="#123480"/>
<circle cx="93" cy="3" r="3" fill="#123480"/>
<circle cx="75" cy="75" r="3" fill="#123480"/>
<circle cx="75" cy="57" r="3" fill="#123480"/>
<circle cx="75" cy="39" r="3" fill="#123480"/>
<circle cx="75" cy="21" r="3" fill="#123480"/>
<circle cx="75" cy="3" r="3" fill="#123480"/>
<circle cx="57" cy="75" r="3" fill="#123480"/>
<circle cx="57" cy="57" r="3" fill="#123480"/>
<circle cx="57" cy="39" r="3" fill="#123480"/>
<circle cx="57" cy="21" r="3" fill="#123480"/>
<circle cx="57" cy="3" r="3" fill="#123480"/>
<circle cx="39" cy="75" r="3" fill="#123480"/>
<circle cx="39" cy="57" r="3" fill="#123480"/>
<circle cx="39" cy="39" r="3" fill="#123480"/>
<circle cx="39" cy="21" r="3" fill="#123480"/>
<circle cx="39" cy="3" r="3" fill="#123480"/>
<circle cx="21" cy="75" r="3" fill="#123480"/>
<circle cx="21" cy="57" r="3" fill="#123480"/>
<circle cx="21" cy="39" r="3" fill="#123480"/>
<circle cx="21" cy="21" r="3" fill="#123480"/>
<circle cx="21" cy="3" r="3" fill="#123480"/>
<circle cx="3" cy="75" r="3" fill="#123480"/>
<circle cx="3" cy="57" r="3" fill="#123480"/>
<circle cx="3" cy="39" r="3" fill="#123480"/>
<circle cx="3" cy="21" r="3" fill="#123480"/>
<circle cx="3" cy="3" r="3" fill="#123480"/>
</svg>
